<svg width="182" height="181" viewBox="0 0 182 181" fill="none" xmlns="http://www.w3.org/2000/svg">
<path d="M16.4391 91.5273C16.4578 92.076 16.3412 92.5818 16.0891 93.0444C15.8326 93.5073 15.4822 93.8825 15.038 94.1701C14.5936 94.4532 14.097 94.6042 13.5483 94.6229C12.995 94.6419 12.4893 94.5252 12.0311 94.273C11.5683 94.0164 11.1953 93.666 10.9122 93.2216C10.6246 92.7774 10.4714 92.2809 10.4526 91.7322C10.4337 91.1789 10.5526 90.6731 10.8093 90.2148C11.0614 89.7521 11.4096 89.3792 11.854 89.0961C12.2936 88.8086 12.7901 88.6554 13.3434 88.6365C13.8922 88.6177 14.3979 88.7366 14.8608 88.9932C15.3235 89.2453 15.6986 89.5934 15.9862 90.0376C16.2692 90.4774 16.4201 90.974 16.4391 91.5273Z" fill="#0357EE"/>
<path d="M11.5636 117.716L9.5206 118.27L6.60816 107.536L8.6512 106.982L9.77946 111.14L21.1902 108.044L21.8462 110.462L10.4354 113.558L11.5636 117.716Z" fill="#0357EE"/>
<path d="M11.7279 124.07L24.1691 117.781L25.1824 119.786L19.6712 129.932L19.7234 130.035L28.1978 125.751L29.337 128.005L16.8958 134.294L15.8763 132.277L21.3967 122.134L21.3414 122.025L12.861 126.311L11.7279 124.07Z" fill="#0357EE"/>
<path d="M22.286 142.112L20.6959 140.15L27.7713 134.415C28.5469 133.787 29.3776 133.417 30.2635 133.307C31.1465 133.193 32.0209 133.331 32.8866 133.722C33.7488 134.115 34.537 134.753 35.2513 135.634C35.9685 136.519 36.4303 137.424 36.6367 138.349C36.8397 139.276 36.7939 140.16 36.4995 141.001C36.205 141.841 35.67 142.575 34.8944 143.204L27.8191 148.939L26.229 146.977L33.1405 141.375C33.5917 141.009 33.9136 140.585 34.1061 140.102C34.2958 139.615 34.3439 139.109 34.2506 138.583C34.1537 138.06 33.9038 137.55 33.501 137.053C33.0981 136.555 32.6508 136.205 32.1591 136.002C31.661 135.798 31.1557 135.741 30.6431 135.829C30.1306 135.917 29.6487 136.144 29.1974 136.51L22.286 142.112Z" fill="#0357EE"/>
<path d="M36.8626 148.26C37.7977 147.084 38.8187 146.253 39.9258 145.765C41.0264 145.278 42.1315 145.113 43.2411 145.271C44.3471 145.426 45.3777 145.883 46.333 146.643C47.2883 147.403 47.9676 148.306 48.3709 149.352C48.7679 150.398 48.8546 151.514 48.6311 152.698C48.4012 153.884 47.8202 155.063 46.8879 156.235C45.9529 157.41 44.935 158.241 43.8343 158.728C42.7273 159.216 41.6208 159.383 40.5148 159.228C39.4052 159.07 38.3728 158.611 37.4175 157.851C36.4622 157.091 35.7847 156.19 35.3849 155.147C34.9816 154.102 34.8949 152.986 35.1248 151.8C35.3483 150.615 35.9276 149.435 36.8626 148.26ZM38.8496 149.84C38.1914 150.668 37.7659 151.469 37.5731 152.243C37.374 153.018 37.3859 153.732 37.6088 154.385C37.8289 155.041 38.2355 155.606 38.8286 156.077C39.4216 156.549 40.0627 156.818 40.7517 156.885C41.4379 156.956 42.1381 156.808 42.8521 156.442C43.5598 156.078 44.2428 155.482 44.901 154.654C45.5592 153.827 45.9878 153.025 46.187 152.25C46.3797 151.476 46.366 150.76 46.1459 150.104C45.923 149.451 45.515 148.889 44.922 148.417C44.3289 147.945 43.6892 147.674 43.003 147.604C42.314 147.537 41.6156 147.686 40.908 148.051C40.1939 148.416 39.5078 149.013 38.8496 149.84Z" fill="#0357EE"/>
<path d="M49.9483 160.798L52.2373 161.912C52.1199 162.319 52.0785 162.71 52.113 163.085C52.1454 163.465 52.2426 163.82 52.4045 164.151C52.5663 164.482 52.7897 164.78 53.0747 165.045C53.3536 165.312 53.6848 165.538 54.0683 165.725C54.7498 166.057 55.4371 166.179 56.1302 166.093C56.8214 166.01 57.4757 165.713 58.0933 165.201C58.7089 164.693 59.246 163.968 59.7047 163.025C60.1713 162.066 60.4155 161.186 60.4373 160.384C60.4531 159.584 60.2812 158.89 59.9218 158.301C59.5562 157.714 59.0348 157.256 58.3575 156.927C57.9821 156.744 57.6073 156.622 57.2333 156.561C56.8531 156.503 56.4848 156.507 56.1283 156.576C55.7678 156.643 55.4283 156.776 55.1098 156.974C54.7871 157.17 54.5018 157.435 54.2537 157.768L51.9706 156.642C52.3462 156.088 52.8039 155.62 53.3437 155.236C53.8794 154.851 54.473 154.57 55.1246 154.392C55.7742 154.219 56.4597 154.169 57.1809 154.242C57.9002 154.32 58.6332 154.54 59.3799 154.904C60.4816 155.44 61.3408 156.173 61.9577 157.104C62.5745 158.035 62.8975 159.103 62.9267 160.308C62.9559 161.514 62.6429 162.79 61.9876 164.136C61.3304 165.487 60.5175 166.519 59.549 167.234C58.5785 167.953 57.5366 168.357 56.4234 168.446C55.3102 168.535 54.2068 168.313 53.1133 167.781C52.4155 167.442 51.8144 167.028 51.3099 166.54C50.8054 166.052 50.4109 165.505 50.1263 164.897C49.8397 164.293 49.6785 163.644 49.6426 162.951C49.6007 162.259 49.7026 161.542 49.9483 160.798Z" fill="#0357EE"/>
<path d="M65.9067 167.95L68.3806 168.551C68.3527 168.973 68.3956 169.364 68.5092 169.724C68.6218 170.087 68.7924 170.413 69.0212 170.702C69.2499 170.991 69.5317 171.235 69.8665 171.433C70.1959 171.634 70.5679 171.785 70.9824 171.886C71.7188 172.064 72.4164 172.038 73.0752 171.805C73.7329 171.577 74.3088 171.147 74.8031 170.515C75.2962 169.888 75.6664 169.065 75.9136 168.046C76.165 167.01 76.216 166.098 76.0663 165.31C75.9112 164.525 75.5953 163.883 75.1186 163.385C74.6364 162.889 74.0293 162.553 73.2973 162.375C72.8916 162.277 72.4995 162.238 72.121 162.258C71.7371 162.281 71.3783 162.365 71.0447 162.508C70.7067 162.65 70.4032 162.852 70.1343 163.114C69.8609 163.374 69.6386 163.694 69.4673 164.072L66.9966 163.459C67.2455 162.837 67.5927 162.282 68.0384 161.792C68.4796 161.302 68.9996 160.9 69.5984 160.588C70.1961 160.28 70.8552 160.085 71.5755 160.003C72.2948 159.926 73.0579 159.985 73.8649 160.18C75.0555 160.469 76.0514 161.003 76.8526 161.781C77.6537 162.559 78.197 163.534 78.4824 164.705C78.7679 165.876 78.734 167.19 78.3809 168.645C78.0267 170.105 77.4526 171.287 76.6587 172.191C75.8638 173.101 74.9319 173.717 73.8633 174.042C72.7946 174.366 71.6694 174.385 70.4875 174.098C69.7335 173.915 69.058 173.639 68.4611 173.27C67.8642 172.901 67.362 172.45 66.9544 171.917C66.5457 171.388 66.2499 170.789 66.0669 170.118C65.8785 169.452 65.8251 168.729 65.9067 167.95Z" fill="#0357EE"/>
<path d="M92.9913 162.538L95.6858 162.608L90.4182 176.416L87.3018 176.336L82.7505 162.273L85.4451 162.342L88.8797 173.517L88.9886 173.519L92.9913 162.538ZM92.761 168L85.4122 167.809L85.4648 165.782L92.8136 165.972L92.761 168Z" fill="#0357EE"/>
<path d="M108.212 174.879L104.541 161.43L106.708 160.839L115.545 168.27L115.657 168.24L113.157 159.079L115.593 158.414L119.263 171.863L117.083 172.458L108.251 165.018L108.133 165.05L110.635 174.217L108.212 174.879Z" fill="#0357EE"/>
<path d="M127.611 152.644L130.004 151.404L132.061 166.039L129.293 167.474L118.516 157.358L120.909 156.118L129.313 164.243L129.41 164.193L127.611 152.644ZM130.047 157.538L123.52 160.921L122.587 159.12L129.114 155.737L130.047 157.538Z" fill="#0357EE"/>
<path d="M146.898 156.098L137.189 146.095L138.801 144.531L150.128 146.769L150.211 146.689L143.597 139.875L145.409 138.116L155.118 148.119L153.497 149.693L142.17 147.445L142.082 147.531L148.701 154.349L146.898 156.098Z" fill="#0357EE"/>
<path d="M152.941 127.675L164.412 135.596L159.261 143.057L157.519 141.854L161.235 136.471L158.121 134.321L154.671 139.317L152.929 138.114L156.379 133.118L153.248 130.956L149.5 136.384L147.758 135.181L152.941 127.675Z" fill="#0357EE"/>
<path d="M158.831 115.498L171.551 121.202L169.412 125.972C168.974 126.949 168.424 127.687 167.763 128.186C167.099 128.69 166.373 128.968 165.583 129.022C164.795 129.081 163.998 128.93 163.19 128.568C162.375 128.202 161.727 127.706 161.248 127.078C160.768 126.45 160.497 125.719 160.433 124.885C160.374 124.053 160.564 123.146 161.004 122.165L162.421 119.003L164.316 119.853L163.038 122.703C162.781 123.275 162.671 123.787 162.706 124.241C162.742 124.694 162.894 125.086 163.164 125.416C163.432 125.75 163.792 126.018 164.243 126.22C164.694 126.423 165.132 126.512 165.555 126.488C165.977 126.468 166.366 126.317 166.721 126.034C167.079 125.756 167.387 125.33 167.645 124.755L168.592 122.643L157.798 117.803L158.831 115.498Z" fill="#0357EE"/>
<path d="M166.939 113.579C165.472 113.257 164.276 112.707 163.351 111.928C162.429 111.154 161.794 110.234 161.447 109.168C161.1 108.107 161.057 106.98 161.318 105.788C161.58 104.596 162.091 103.588 162.853 102.766C163.617 101.949 164.581 101.38 165.743 101.059C166.909 100.743 168.223 100.746 169.686 101.067C171.153 101.389 172.347 101.937 173.269 102.71C174.195 103.49 174.831 104.41 175.179 105.471C175.526 106.537 175.568 107.666 175.307 108.858C175.045 110.05 174.534 111.055 173.774 111.874C173.013 112.696 172.049 113.265 170.883 113.581C169.721 113.902 168.407 113.901 166.939 113.579ZM167.484 111.099C168.516 111.326 169.423 111.355 170.203 111.187C170.987 111.025 171.623 110.7 172.111 110.212C172.603 109.726 172.93 109.112 173.093 108.372C173.255 107.632 173.215 106.938 172.971 106.29C172.732 105.643 172.292 105.079 171.649 104.599C171.01 104.124 170.174 103.773 169.141 103.547C168.109 103.32 167.2 103.288 166.417 103.45C165.636 103.618 165 103.946 164.508 104.432C164.02 104.92 163.695 105.534 163.532 106.274C163.37 107.014 163.408 107.708 163.647 108.355C163.89 109.003 164.332 109.564 164.971 110.039C165.613 110.519 166.451 110.873 167.484 111.099Z" fill="#0357EE"/>
<path d="M165.748 89.5148C165.731 88.966 165.85 88.4608 166.103 87.9991C166.362 87.5372 166.714 87.1634 167.159 86.8775C167.604 86.5961 168.102 86.4471 168.65 86.4305C169.204 86.4137 169.709 86.5323 170.166 86.7863C170.628 87.0447 171 87.3966 171.281 87.842C171.567 88.2874 171.718 88.7844 171.735 89.3333C171.752 89.8866 171.631 90.3919 171.372 90.8492C171.118 91.3109 170.769 91.6825 170.323 91.9638C169.882 92.2496 169.385 92.4009 168.832 92.4176C168.283 92.4343 167.778 92.3134 167.316 92.055C166.854 91.8012 166.481 91.4516 166.195 91.0063C165.913 90.5654 165.764 90.0682 165.748 89.5148Z" fill="#0357EE"/>
<path d="M170.725 63.3454L172.77 62.799L175.641 73.5444L173.596 74.0908L172.484 69.9281L161.061 72.9797L160.414 70.5597L171.837 67.5081L170.725 63.3454Z" fill="#0357EE"/>
<path d="M170.585 56.9912L158.12 63.2314L157.114 61.2227L162.665 51.0986L162.613 50.9951L154.122 55.2456L152.992 52.9874L165.457 46.7473L166.469 48.768L160.909 58.8892L160.964 58.9987L169.461 54.7452L170.585 56.9912Z" fill="#0357EE"/>
<path d="M160.098 38.9081L161.68 40.8761L154.582 46.5831C153.804 47.2087 152.972 47.575 152.086 47.6821C151.202 47.7927 150.329 47.651 149.465 47.257C148.604 46.8601 147.818 46.2196 147.107 45.3355C146.394 44.4479 145.935 43.5412 145.732 42.6154C145.533 41.6868 145.582 40.8029 145.88 39.9638C146.178 39.1247 146.716 38.3923 147.494 37.7668L154.591 32.0598L156.174 34.0278L149.24 39.6026C148.788 39.9665 148.464 40.3897 148.27 40.8721C148.078 41.358 148.028 41.8642 148.119 42.3905C148.214 42.914 148.462 43.4251 148.863 43.9237C149.264 44.4223 149.71 44.7742 150.201 44.9792C150.698 45.1849 151.203 45.2446 151.716 45.1583C152.229 45.072 152.712 44.8468 153.164 44.4828L160.098 38.9081Z" fill="#0357EE"/>
<path d="M145.545 32.7034C144.606 33.8752 143.581 34.7029 142.472 35.1864C141.37 35.6692 140.264 35.8296 139.155 35.6675C138.05 35.5082 137.021 35.0467 136.069 34.2831C135.116 33.5195 134.44 32.6141 134.041 31.5669C133.648 30.519 133.566 29.4031 133.794 28.2191C134.029 27.0345 134.614 25.858 135.551 24.6897C136.491 23.5179 137.512 22.6905 138.614 22.2077C139.723 21.7242 140.83 21.5621 141.936 21.7214C143.045 21.8835 144.075 22.3464 145.028 23.11C145.98 23.8736 146.654 24.7776 147.05 25.8219C147.449 26.8691 147.531 27.985 147.297 29.1697C147.069 30.3537 146.485 31.5316 145.545 32.7034ZM143.564 31.1151C144.226 30.2903 144.654 29.491 144.85 28.7173C145.052 27.9429 145.043 27.2289 144.823 26.5753C144.605 25.9181 144.201 25.3524 143.61 24.8784C143.018 24.4043 142.378 24.1325 141.69 24.063C141.004 23.9899 140.303 24.1348 139.587 24.4975C138.878 24.8596 138.193 25.4531 137.532 26.278C136.87 27.1029 136.439 27.9025 136.236 28.6769C136.041 29.4505 136.052 30.166 136.269 30.8232C136.489 31.4768 136.895 32.0407 137.486 32.5148C138.078 32.9888 138.716 33.2624 139.402 33.3354C140.091 33.4049 140.79 33.2587 141.499 32.8966C142.214 32.5339 142.903 31.94 143.564 31.1151Z" fill="#0357EE"/>
<path d="M132.508 20.1143L130.223 18.9914C130.342 18.5847 130.385 18.1938 130.352 17.8185C130.321 17.4393 130.225 17.0837 130.065 16.752C129.904 16.4203 129.682 16.1215 129.398 15.8555C129.12 15.5875 128.79 15.3594 128.407 15.1713C127.727 14.8371 127.04 14.7119 126.347 14.7958C125.655 14.8756 125 15.1703 124.38 15.6799C123.763 16.1854 123.223 16.9086 122.76 17.8493C122.29 18.8064 122.042 19.6858 122.017 20.4876C121.999 21.2873 122.168 21.9823 122.525 22.5724C122.888 23.1605 123.408 23.6206 124.084 23.9529C124.459 24.137 124.833 24.2603 125.207 24.3227C125.587 24.383 125.955 24.3794 126.312 24.312C126.672 24.2466 127.012 24.1154 127.332 23.9184C127.655 23.7234 127.941 23.4597 128.191 23.1271L130.47 24.2622C130.092 24.8148 129.632 25.2816 129.091 25.6628C128.554 26.046 127.959 26.3251 127.307 26.5C126.657 26.6709 125.971 26.7182 125.25 26.642C124.531 26.5617 123.799 26.3384 123.054 25.9721C121.954 25.4317 121.098 24.6949 120.484 23.7615C119.871 22.8281 119.552 21.7587 119.528 20.5534C119.503 19.3481 119.821 18.0735 120.482 16.7295C121.144 15.3815 121.961 14.352 122.932 13.6411C123.906 12.9262 124.949 12.5263 126.063 12.4416C127.176 12.3568 128.279 12.5826 129.37 13.119C130.067 13.4613 130.666 13.8773 131.169 14.367C131.671 14.8567 132.064 15.406 132.346 16.0149C132.63 16.6198 132.789 17.2691 132.822 17.9629C132.861 18.6547 132.757 19.3718 132.508 20.1143Z" fill="#0357EE"/>
<path d="M116.578 12.9003L114.106 12.2903C114.136 11.8676 114.094 11.4765 113.982 11.1169C113.871 10.7529 113.702 10.426 113.474 10.1362C113.246 9.84629 112.965 9.6017 112.631 9.40241C112.303 9.19979 111.931 9.04738 111.517 8.94518C110.782 8.7636 110.084 8.78772 109.424 9.01754C108.766 9.24295 108.188 9.67062 107.691 10.3006C107.196 10.9261 106.822 11.7477 106.571 12.7654C106.316 13.8007 106.261 14.7128 106.408 15.5014C106.56 16.2868 106.873 16.9297 107.348 17.4301C107.828 17.9273 108.434 18.2661 109.165 18.4465C109.571 18.5466 109.963 18.5872 110.341 18.5685C110.725 18.5464 111.084 18.4644 111.419 18.3225C111.757 18.1817 112.061 17.981 112.331 17.7205C112.606 17.461 112.829 17.1423 113.002 16.7642L115.47 17.3874C115.219 18.0078 114.87 18.5619 114.422 19.0497C113.979 19.5386 113.457 19.9381 112.857 20.2481C112.258 20.5536 111.599 20.746 110.878 20.8252C110.158 20.9001 109.396 20.838 108.589 20.639C107.4 20.3454 106.406 19.8081 105.608 19.0268C104.81 18.2456 104.27 17.2688 103.989 16.0965C103.709 14.9241 103.747 13.611 104.106 12.1571C104.466 10.6988 105.045 9.51888 105.842 8.61729C106.641 7.71129 107.575 7.09819 108.645 6.77799C109.715 6.45778 110.84 6.44338 112.021 6.73477C112.774 6.92069 113.449 7.1993 114.044 7.5706C114.639 7.94191 115.14 8.39494 115.545 8.9297C115.952 9.46006 116.246 10.0606 116.426 10.7315C116.612 11.399 116.662 12.1219 116.578 12.9003Z" fill="#0357EE"/>
<path d="M89.4722 18.2068L86.778 18.1264L92.0992 4.3387L95.2153 4.43168L99.7118 18.5123L97.0176 18.4319L93.6264 7.24438L93.5176 7.24113L89.4722 18.2068ZM89.7237 12.746L97.0717 12.9652L97.0112 14.9928L89.6632 14.7735L89.7237 12.746Z" fill="#0357EE"/>
<path d="M74.3001 5.80713L77.9179 19.2697L75.7486 19.8527L66.9409 12.3873L66.8291 12.4173L69.2934 21.5874L66.8546 22.2427L63.2368 8.78014L65.4192 8.19367L74.2221 15.6674L74.3405 15.6356L71.8744 6.45896L74.3001 5.80713Z" fill="#0357EE"/>
<path d="M54.8146 27.966L52.4167 29.197L50.4163 14.5541L53.1897 13.1304L63.9281 23.2876L61.5301 24.5186L53.1571 16.3607L53.0602 16.4104L54.8146 27.966ZM52.3972 23.063L58.9371 19.7058L59.8634 21.5103L53.3235 24.8676L52.3972 23.063Z" fill="#0357EE"/>
<path d="M35.5404 24.4371L45.2108 34.4777L43.593 36.0359L32.2749 33.7534L32.1916 33.8337L38.7786 40.6728L36.9597 42.4246L27.2893 32.3841L28.917 30.8164L40.2348 33.1085L40.3231 33.0235L33.7313 26.1795L35.5404 24.4371Z" fill="#0357EE"/>
<path d="M29.3876 52.8364L17.947 44.8712L23.1275 37.4304L24.8648 38.6399L21.1272 44.0083L24.2332 46.1707L27.7024 41.1878L29.4397 42.3973L25.9705 47.3802L29.0932 49.5543L32.8618 44.1413L34.5991 45.3509L29.3876 52.8364Z" fill="#0357EE"/>
<path d="M23.4504 64.9903L10.7527 59.2372L12.91 54.4756C13.352 53.5001 13.9047 52.7641 14.5681 52.2675C15.2333 51.7669 15.961 51.4913 16.7511 51.4407C17.5389 51.3842 18.3359 51.5385 19.1419 51.9037C19.9561 52.2726 20.6018 52.7719 21.0787 53.4015C21.5557 54.0311 21.8244 54.7631 21.8847 55.5975C21.9409 56.43 21.7471 57.3361 21.3033 58.3157L19.8735 61.4715L17.9824 60.6148L19.2718 57.7689C19.5303 57.1985 19.6427 56.6865 19.6091 56.2329C19.5755 55.7793 19.4244 55.387 19.1559 55.0561C18.8892 54.721 18.5306 54.4514 18.08 54.2473C17.6295 54.0432 17.1924 53.9523 16.7688 53.9746C16.3471 53.9927 15.9578 54.1427 15.601 54.4244C15.242 54.7001 14.9323 55.1253 14.672 55.6998L13.7169 57.8078L24.4926 62.69L23.4504 64.9903Z" fill="#0357EE"/>
<path d="M15.3341 66.8778C16.8 67.2055 17.9941 67.7607 18.9165 68.5435C19.8354 69.3208 20.4662 70.243 20.8089 71.3101C21.1526 72.3726 21.1913 73.4996 20.925 74.6909C20.6587 75.8821 20.1433 76.8875 19.3789 77.7071C18.611 78.5212 17.6454 79.0865 16.4819 79.403C15.315 79.7141 14.0009 79.7063 12.5394 79.3796C11.0736 79.0519 9.88121 78.4994 8.96227 77.722C8.03989 76.9393 7.40685 76.0166 7.06316 74.954C6.72045 73.8869 6.68225 72.7578 6.94855 71.5665C7.21485 70.3752 7.72972 69.3721 8.49316 68.557C9.2576 67.7374 10.2233 67.1721 11.3902 66.861C12.5536 66.5445 13.8683 66.5501 15.3341 66.8778ZM14.7802 69.3556C13.7484 69.1249 12.842 69.092 12.0612 69.2569C11.2769 69.4164 10.6399 69.739 10.15 70.2246C9.65574 70.7093 9.32593 71.3214 9.16061 72.061C8.99528 72.8006 9.03305 73.4949 9.2739 74.1439C9.51032 74.7919 9.9489 75.3573 10.5896 75.8399C11.2269 76.3172 12.0615 76.6711 13.0933 76.9018C14.1252 77.1325 15.0332 77.1681 15.8175 77.0086C16.5983 76.8437 17.2359 76.5189 17.7302 76.0342C18.22 75.5486 18.5476 74.9359 18.713 74.1964C18.8783 73.4568 18.8427 72.763 18.6063 72.115C18.3655 71.466 17.9264 70.9028 17.2891 70.4256C16.6484 69.9429 15.8121 69.5862 14.7802 69.3556Z" fill="#0357EE"/>
<rect x="49.5092" y="48.0195" width="84.6445" height="84.6445" rx="42.3222" fill="#0361F0"/>
<path fill-rule="evenodd" clip-rule="evenodd" d="M100.01 98.0985C99.0358 98.0986 98.2462 97.3092 98.2461 96.3353L98.2449 86.4211L84.9001 99.7661C84.2115 100.455 83.095 100.455 82.4063 99.7661C81.7176 99.0775 81.7176 97.9609 82.4062 97.2723L95.7507 83.9277H85.8395C84.8656 83.9277 84.0761 83.1382 84.0761 82.1643C84.0761 81.1904 84.8656 80.4009 85.8395 80.4009L100.008 80.4009C100.982 80.4009 101.771 81.1903 101.771 82.1641L101.773 96.3349C101.773 97.3088 100.984 98.0984 100.01 98.0985Z" fill="white"/>
</svg>
